<?xml version="1.0" standalone="no"?>
<!DOCTYPE svg PUBLIC "-//W3C//DTD SVG 20010904//EN"
 "http://www.w3.org/TR/2001/REC-SVG-20010904/DTD/svg10.dtd">
<svg version="1.0" xmlns="http://www.w3.org/2000/svg"
 width="2432.000000pt" height="2432.000000pt" viewBox="0 0 2432.000000 2432.000000"
 preserveAspectRatio="xMidYMid meet">
<metadata>
Created by potrace 1.11, written by Peter Selinger 2001-2013
</metadata>
<g transform="translate(0.000000,2432.000000) scale(0.100000,-0.100000)"
fill="#000000" stroke="none">
<path d="M12194 16561 c-4 -4 -161 -11 -321 -14 -40 -1 -73 -4 -73 -7 0 -3
-26 -6 -58 -6 -83 -2 -269 -16 -382 -29 -25 -3 -72 -8 -105 -11 -61 -6 -72 -7
-160 -20 -27 -4 -65 -8 -82 -8 -18 0 -33 -3 -33 -6 0 -3 -10 -6 -22 -6 -24 -1
-96 -11 -138 -19 -14 -3 -41 -7 -60 -10 -19 -3 -46 -7 -60 -10 -13 -2 -42 -8
-65 -11 -22 -4 -49 -8 -60 -10 -29 -4 -261 -54 -330 -71 -16 -4 -32 -7 -35 -8
-3 -1 -25 -5 -50 -10 -53 -10 -59 -12 -62 -15 -2 -1 -10 -3 -18 -5 -16 -4
-146 -35 -170 -41 -8 -2 -58 -15 -110 -30 -52 -14 -133 -36 -180 -49 -134 -37
-273 -79 -430 -129 -80 -26 -149 -48 -155 -50 -70 -19 -102 -29 -110 -34 -5
-4 -17 -8 -25 -9 -8 -1 -76 -23 -150 -48 -74 -25 -142 -48 -150 -50 -8 -2 -69
-22 -135 -45 -66 -23 -124 -43 -130 -45 -5 -1 -21 -7 -35 -12 -14 -6 -68 -25
-120 -43 -52 -18 -106 -38 -120 -43 -14 -6 -27 -11 -30 -11 -7 -2 -94 -34
-170 -63 -35 -14 -69 -26 -75 -28 -5 -1 -17 -5 -25 -8 -8 -4 -42 -16 -75 -28
-33 -12 -71 -26 -85 -32 -14 -6 -33 -12 -42 -13 -9 -2 -42 -15 -73 -29 -32
-14 -61 -23 -65 -20 -5 3 -11 1 -14 -4 -4 -5 -23 -15 -44 -21 -20 -7 -50 -18
-67 -25 -27 -12 -62 -26 -75 -30 -3 -1 -17 -7 -31 -13 -15 -6 -35 -12 -45 -14
-11 -2 -21 -6 -24 -9 -4 -5 -278 -113 -290 -115 -3 0 -22 -8 -44 -17 -21 -9
-44 -17 -51 -17 -6 0 -15 -3 -19 -7 -4 -5 -11 -8 -14 -9 -4 0 -24 -8 -46 -17
-21 -9 -44 -17 -50 -17 -7 0 -16 -4 -21 -8 -6 -5 -48 -24 -95 -42 -94 -36
-140 -55 -185 -75 -16 -8 -54 -22 -82 -32 -29 -10 -53 -21 -53 -25 0 -5 -9 -8
-20 -8 -11 0 -28 -4 -38 -10 -19 -11 -161 -71 -177 -74 -11 -3 -27 -10 -154
-62 -47 -20 -95 -40 -106 -44 -11 -5 -40 -17 -65 -29 -43 -19 -99 -43 -110
-46 -3 -1 -21 -8 -40 -17 -19 -8 -60 -25 -90 -38 -30 -12 -68 -28 -85 -35 -47
-20 -224 -95 -253 -107 -15 -6 -29 -12 -32 -12 -3 -1 -31 -14 -64 -29 -32 -15
-60 -27 -63 -27 -5 0 -110 -47 -135 -61 -10 -5 -25 -9 -33 -9 -8 0 -15 -4 -15
-10 0 -5 -5 -10 -12 -10 -6 0 -32 -9 -57 -21 -25 -11 -55 -25 -66 -29 -11 -5
-78 -34 -150 -65 -126 -55 -160 -71 -310 -138 -38 -17 -73 -36 -77 -42 -4 -5
-8 -7 -8 -2 0 4 -26 -6 -59 -22 -32 -17 -61 -27 -65 -24 -3 4 -6 1 -6 -5 0 -7
-5 -12 -11 -12 -7 0 -44 -15 -83 -34 -68 -32 -126 -59 -246 -112 -93 -42 -125
-58 -132 -69 -4 -5 -8 -7 -8 -3 0 3 -44 -15 -97 -42 -54 -26 -138 -67 -188
-90 -49 -23 -173 -83 -274 -132 -209 -102 -404 -195 -506 -243 -38 -18 -110
-51 -160 -74 -49 -24 -114 -54 -145 -68 -30 -14 -92 -43 -137 -64 -46 -22 -85
-39 -87 -39 -2 0 -57 -25 -121 -55 -156 -74 -189 -88 -197 -87 -5 1 -8 -2 -8
-8 0 -6 -3 -9 -7 -8 -8 2 -47 -15 -179 -78 -39 -19 -76 -34 -83 -34 -6 0 -11
-5 -11 -12 0 -6 -3 -9 -6 -6 -4 5 -142 -55 -268 -118 -16 -8 -35 -14 -43 -14
-7 0 -13 -4 -13 -10 0 -5 -6 -10 -14 -10 -8 0 -40 -13 -72 -29 -33 -16 -81
-39 -109 -51 -58 -26 -192 -89 -278 -131 -33 -16 -66 -29 -73 -29 -7 0 -14 -3
-16 -7 -2 -5 -25 -19 -53 -32 -27 -12 -91 -44 -142 -69 l-92 -45 97 -44 c53
-23 102 -43 109 -43 7 0 13 -5 13 -10 0 -6 3 -9 8 -8 4 1 23 -5 42 -14 19 -8
93 -41 165 -73 72 -31 159 -71 195 -88 36 -17 67 -32 70 -32 3 -1 32 -14 65
-30 33 -16 62 -29 65 -30 3 0 20 -9 37 -18 18 -10 36 -18 40 -19 8 -1 94 -39
178 -79 28 -12 52 -24 55 -24 3 -1 30 -13 60 -27 156 -72 191 -88 200 -88 6 0
10 -4 10 -10 0 -5 7 -10 15 -10 8 0 23 -4 33 -10 50 -28 161 -78 165 -74 2 3
10 -2 17 -11 7 -8 18 -15 25 -15 7 0 39 -13 71 -29 33 -16 111 -52 174 -81 63
-29 151 -69 195 -90 44 -21 105 -49 135 -63 30 -13 87 -40 125 -58 39 -18 72
-33 75 -33 3 -1 30 -13 60 -27 60 -29 163 -77 250 -117 30 -13 57 -27 60 -31
3 -3 30 -18 60 -33 381 -185 627 -303 642 -307 4 -1 43 -19 85 -40 43 -21 107
-52 143 -69 113 -53 185 -85 190 -87 3 0 45 -20 93 -43 49 -23 91 -42 94 -42
6 0 131 -58 153 -71 8 -5 26 -14 40 -19 14 -6 34 -15 45 -20 11 -5 61 -27 110
-49 50 -21 115 -50 145 -64 44 -20 285 -125 490 -213 19 -9 44 -19 55 -24 117
-52 151 -67 155 -67 3 0 25 -9 50 -21 40 -18 138 -58 195 -81 11 -4 40 -17 65
-29 25 -12 48 -22 53 -22 4 0 26 -8 50 -19 23 -10 89 -37 147 -61 58 -23 119
-48 135 -55 17 -7 118 -48 225 -90 107 -43 209 -83 227 -91 17 -8 33 -14 36
-14 2 0 21 -7 41 -15 20 -8 38 -15 41 -15 3 0 19 -7 36 -16 17 -8 39 -17 48
-19 10 -2 37 -12 62 -23 24 -11 85 -34 134 -52 50 -17 104 -38 122 -46 17 -8
33 -14 36 -14 3 0 18 -5 34 -12 15 -6 35 -12 43 -14 8 -2 23 -7 35 -12 65 -29
97 -42 106 -42 6 0 25 -7 42 -15 18 -8 66 -26 107 -41 41 -15 86 -31 100 -37
14 -5 34 -12 45 -14 11 -1 29 -7 40 -12 21 -10 55 -23 68 -26 4 -2 9 -4 12 -5
3 -1 8 -3 13 -5 4 -1 14 -4 22 -8 24 -9 224 -78 240 -83 8 -2 114 -38 235 -78
276 -94 258 -88 271 -91 7 -2 88 -28 180 -58 93 -31 185 -60 204 -65 19 -5
105 -31 190 -56 85 -26 180 -54 210 -62 30 -9 61 -17 68 -20 7 -2 14 -4 17 -4
3 -1 19 -6 37 -11 18 -6 40 -12 48 -14 8 -2 42 -12 75 -21 33 -9 68 -18 78
-20 9 -2 25 -6 35 -9 59 -17 605 -154 630 -158 17 -3 35 -7 39 -10 5 -3 27 -8
48 -11 52 -7 96 -16 115 -23 8 -3 24 -7 35 -9 43 -6 75 -13 84 -18 4 -3 28 -8
52 -11 24 -3 67 -10 94 -16 71 -15 74 -15 240 -44 83 -14 168 -28 190 -30 22
-3 51 -7 65 -10 14 -3 52 -8 85 -11 33 -4 62 -8 65 -9 3 -2 34 -6 70 -10 36
-3 83 -8 105 -10 143 -16 231 -23 390 -31 303 -14 818 -5 1180 21 39 3 99 7
135 10 66 4 129 10 234 21 32 3 75 7 95 9 103 10 139 14 166 19 17 2 53 7 80
11 28 3 64 7 80 9 88 12 133 18 155 21 14 2 48 7 75 11 28 3 58 10 67 15 10 6
19 5 23 -1 4 -6 13 -7 24 -1 10 6 39 12 66 16 26 3 50 7 54 9 3 2 29 7 56 10
28 4 57 9 65 11 8 2 32 6 52 9 21 3 59 11 85 17 27 6 59 13 73 15 14 3 57 11
95 19 39 8 81 17 95 19 14 3 49 10 78 16 30 7 61 13 70 15 9 2 17 4 17 5 0 1
7 3 15 5 8 2 26 6 40 9 14 3 39 8 55 12 17 3 36 7 43 10 14 4 15 4 62 16 56
14 61 15 150 38 47 12 92 23 100 25 8 2 15 4 15 5 0 1 7 3 15 5 51 10 309 85
410 118 36 11 71 22 78 24 6 2 20 5 30 7 9 3 18 5 20 6 1 2 5 3 10 4 4 1 32
10 62 21 30 11 58 20 63 21 4 1 10 3 15 4 4 1 11 2 15 1 4 -1 21 6 37 14 16 8
37 17 47 18 10 2 25 7 33 10 21 9 102 37 120 42 38 11 358 128 450 165 30 12
62 24 70 25 8 2 16 4 18 5 1 2 5 3 10 5 10 3 41 15 89 36 23 11 45 19 48 19 3
0 25 8 48 19 23 10 74 31 112 45 39 15 86 34 105 42 40 18 44 19 168 73 50 22
92 37 92 33 0 -4 4 -2 8 3 4 6 34 21 67 34 33 14 96 41 140 61 77 36 114 52
125 55 3 0 41 18 85 38 44 21 89 40 102 43 12 3 27 12 34 20 6 8 20 14 30 14
10 0 21 5 24 10 4 6 11 8 16 5 5 -4 9 -2 9 2 0 9 69 39 83 35 4 -1 7 2 7 7 0
7 50 33 70 37 3 0 59 26 125 58 155 75 284 136 415 198 58 27 132 63 164 79
33 16 64 29 69 29 6 0 18 7 28 16 9 8 26 16 38 17 11 1 21 4 21 7 0 6 63 35
69 31 2 -1 7 1 10 6 6 7 75 42 86 43 3 0 31 14 64 30 32 17 64 30 70 30 6 0
11 5 11 10 0 6 6 10 13 10 7 0 29 9 49 19 19 11 39 17 42 14 3 -4 6 -1 6 5 0
7 4 12 9 12 5 0 51 20 103 45 51 25 98 45 105 45 6 0 13 4 15 8 2 4 30 20 63
34 33 15 119 55 190 89 72 35 132 63 135 64 3 1 77 36 165 79 88 43 212 103
275 134 63 31 117 57 120 57 3 0 16 7 30 15 14 8 27 15 30 15 3 1 50 24 105
50 55 27 103 48 108 47 4 -1 7 2 7 8 0 5 4 10 9 10 6 0 75 32 155 70 79 39
149 70 155 70 6 0 11 5 11 11 0 5 4 8 9 5 5 -3 20 3 34 14 14 11 28 20 32 20
12 0 439 214 446 223 3 5 9 8 13 8 8 -2 179 82 186 90 3 4 16 10 30 14 14 4
32 13 40 20 8 8 18 14 23 14 10 0 409 201 425 213 6 6 12 7 12 3 0 -4 6 -3 13
3 20 16 272 142 285 142 7 0 12 3 12 8 0 7 74 43 86 41 4 0 10 3 13 8 3 4 227
118 496 253 270 135 493 249 496 253 3 5 9 8 13 8 13 -2 126 60 126 69 0 9
-247 134 -252 128 -2 -2 -16 6 -33 17 -16 12 -55 32 -85 45 -30 14 -56 28 -58
33 -2 4 -9 7 -15 7 -7 0 -93 40 -192 88 -99 49 -242 119 -317 156 -76 37 -141
68 -145 68 -4 0 -20 9 -35 19 -14 10 -29 19 -32 19 -3 0 -117 55 -253 121
-640 313 -718 351 -723 351 -3 0 -16 8 -30 18 -14 9 -42 23 -62 31 -21 7 -38
17 -38 21 0 4 -3 7 -7 6 -11 -2 -107 45 -111 55 -2 4 -9 7 -16 7 -7 0 -111 49
-232 109 -370 183 -1362 670 -1419 697 -22 10 -43 23 -47 28 -4 6 -8 8 -8 4 0
-5 -33 9 -72 29 -40 21 -75 38 -78 38 -3 1 -85 40 -183 88 -98 48 -182 87
-187 87 -6 0 -10 5 -10 10 0 6 -6 10 -13 10 -8 0 -45 15 -83 34 -137 66 -181
86 -192 86 -7 0 -12 5 -12 10 0 6 -4 10 -9 10 -5 0 -47 17 -93 39 -45 21 -123
57 -171 80 -49 22 -90 41 -92 41 -2 0 -47 21 -102 46 -54 26 -132 61 -173 79
-41 18 -100 44 -130 58 -30 14 -134 60 -230 102 -223 97 -188 81 -350 150 -36
15 -85 37 -110 48 -25 11 -162 67 -305 124 -143 58 -273 111 -290 119 -16 7
-64 25 -105 40 -41 14 -88 32 -105 39 -16 7 -93 36 -170 65 -77 29 -154 58
-172 66 -17 8 -35 14 -39 14 -7 0 -74 23 -164 57 -8 3 -21 7 -29 9 -7 1 -36
11 -65 22 -77 30 -150 56 -156 57 -3 0 -18 6 -35 12 -16 7 -131 44 -255 83
-124 39 -234 75 -245 80 -11 5 -63 20 -115 35 -52 15 -149 42 -215 61 -196 57
-492 136 -520 139 -11 1 -27 5 -35 8 -20 7 -105 27 -221 52 -9 2 -61 13 -115
25 -55 12 -110 24 -124 26 -14 2 -36 7 -50 10 -14 3 -36 8 -50 10 -14 2 -63
10 -110 19 -47 9 -101 18 -120 21 -19 2 -45 6 -58 9 -12 3 -44 8 -70 11 -26 2
-72 9 -102 14 -30 5 -77 11 -105 14 -27 3 -70 8 -95 11 -50 7 -90 11 -195 20
-38 3 -101 8 -140 12 -77 7 -1144 10 -1151 4z m631 -681 c12 5 25 7 26 5 2 -1
82 -6 178 -10 95 -3 182 -8 192 -10 11 -2 59 -7 107 -10 48 -4 101 -8 117 -11
17 -2 50 -6 75 -9 25 -3 56 -7 70 -10 14 -2 48 -7 75 -10 28 -4 113 -18 190
-31 184 -32 197 -34 215 -39 8 -2 29 -7 45 -10 17 -2 41 -7 55 -10 14 -4 39
-8 55 -11 17 -3 86 -19 155 -36 68 -17 131 -32 140 -33 8 -2 15 -4 15 -5 0 -1
7 -3 15 -5 12 -2 167 -42 280 -71 8 -2 47 -13 85 -24 39 -12 75 -23 80 -24 26
-7 102 -29 115 -34 8 -3 24 -7 35 -9 11 -2 54 -15 95 -29 41 -14 82 -27 90
-29 8 -2 96 -31 195 -64 99 -34 187 -63 195 -65 15 -4 148 -51 185 -66 118
-45 356 -130 367 -130 8 0 19 -5 26 -12 6 -6 17 -13 24 -14 15 -2 140 -49 178
-66 14 -6 34 -14 45 -18 11 -4 42 -17 70 -30 27 -12 57 -24 65 -25 8 -2 58
-21 110 -43 52 -22 190 -79 305 -127 116 -48 214 -91 220 -96 5 -5 17 -9 27
-9 10 0 18 -4 18 -10 0 -5 3 -9 8 -8 4 1 24 -6 46 -15 21 -9 40 -17 43 -17 2
0 31 -13 64 -30 33 -16 63 -30 67 -30 7 -2 18 -6 155 -69 49 -23 90 -41 92
-41 2 0 51 -22 110 -50 59 -27 108 -50 109 -50 2 0 59 -26 127 -59 68 -32 158
-74 199 -94 41 -19 147 -70 235 -113 88 -43 162 -78 165 -79 6 -1 201 -96 520
-253 129 -64 237 -117 240 -117 6 -2 268 -132 290 -144 51 -29 207 -101 217
-101 6 0 13 -3 15 -7 2 -5 46 -28 98 -53 52 -25 97 -48 98 -52 2 -5 9 -8 15
-8 14 0 140 -62 148 -73 3 -5 9 -8 13 -7 4 1 53 -21 109 -48 466 -230 881
-432 888 -432 5 0 9 -5 9 -10 0 -6 3 -9 8 -8 4 2 48 -17 97 -41 50 -24 245
-120 434 -213 188 -92 347 -168 352 -168 5 0 9 -4 9 -10 0 -5 6 -10 14 -10 8
0 32 -10 53 -22 34 -21 36 -23 16 -26 -13 -2 -23 -8 -23 -13 0 -5 -9 -9 -20
-9 -11 0 -20 -4 -20 -10 0 -5 -5 -10 -11 -10 -14 0 -480 -232 -497 -247 -7 -7
-22 -13 -32 -13 -10 0 -20 -3 -22 -7 -1 -5 -43 -27 -93 -51 -49 -24 -97 -47
-105 -51 -119 -62 -266 -134 -269 -132 -2 1 -7 -1 -10 -6 -9 -12 -944 -479
-953 -475 -5 1 -8 -2 -8 -6 0 -5 -19 -16 -42 -27 -24 -10 -56 -27 -73 -39 -16
-11 -31 -20 -33 -18 -1 2 -54 -22 -118 -52 -63 -31 -119 -56 -125 -56 -5 0 -9
-4 -9 -10 0 -5 -5 -10 -11 -10 -7 0 -60 -23 -118 -52 -58 -29 -109 -52 -113
-53 -4 0 -13 -6 -20 -12 -6 -7 -15 -13 -20 -13 -4 0 -67 -29 -140 -64 -293
-140 -496 -239 -551 -266 -31 -17 -60 -31 -65 -32 -4 -1 -59 -26 -122 -56
-121 -57 -149 -69 -164 -70 -5 0 -12 -4 -15 -9 -3 -5 -24 -17 -46 -27 -67 -31
-174 -81 -290 -136 -60 -29 -137 -65 -170 -80 -93 -43 -218 -102 -355 -168
-290 -139 -427 -202 -440 -202 -6 0 -10 -4 -10 -8 0 -5 -15 -13 -32 -19 -18
-6 -89 -37 -158 -68 -126 -57 -171 -77 -180 -80 -3 0 -27 -11 -55 -24 -27 -12
-97 -42 -155 -66 -58 -24 -135 -57 -172 -74 -38 -16 -68 -28 -68 -26 0 2 -34
-12 -75 -30 -41 -19 -75 -31 -75 -28 0 4 -5 2 -12 -5 -7 -7 -20 -12 -30 -12
-10 0 -18 -5 -18 -10 0 -6 -3 -9 -7 -8 -5 2 -21 -2 -38 -9 -16 -6 -57 -21 -90
-33 -33 -12 -69 -26 -80 -31 -33 -14 -264 -96 -295 -104 -3 -1 -13 -5 -22 -9
-9 -4 -22 -9 -30 -10 -7 -2 -20 -6 -28 -9 -35 -14 -415 -136 -442 -141 -7 -2
-20 -6 -28 -9 -13 -5 -112 -33 -145 -40 -5 -2 -16 -6 -23 -11 -7 -4 -16 -6
-19 -3 -3 3 -22 0 -42 -8 -38 -15 -192 -56 -226 -60 -11 -1 -20 -3 -20 -4 0
-2 -7 -4 -15 -6 -8 -2 -44 -10 -80 -19 -102 -25 -170 -40 -236 -52 -16 -3 -37
-7 -46 -10 -9 -3 -27 -7 -40 -9 -25 -5 -108 -22 -148 -31 -14 -3 -41 -7 -60
-9 -19 -2 -96 -15 -171 -29 -128 -23 -187 -32 -269 -41 -42 -4 -115 -14 -150
-20 -72 -12 -198 -26 -265 -30 -27 -2 -79 -7 -115 -10 -92 -9 -140 -13 -260
-20 -58 -3 -143 -8 -190 -11 -132 -9 -763 -8 -880 1 -58 4 -120 9 -137 9 -18
1 -33 3 -33 6 0 3 -26 6 -58 7 -31 2 -91 8 -132 14 -41 6 -84 12 -95 14 -11 1
-38 5 -60 8 -38 6 -106 16 -150 23 -11 1 -20 3 -20 4 0 1 -13 4 -30 5 -16 2
-39 6 -50 8 -18 4 -58 12 -125 24 -14 2 -79 15 -145 29 -66 14 -131 27 -145
30 -14 2 -36 7 -50 11 -14 3 -31 7 -39 9 -7 1 -34 8 -60 14 -25 6 -55 13 -66
15 -11 2 -40 9 -65 16 -25 6 -52 12 -60 14 -8 2 -78 20 -155 40 -77 20 -169
44 -205 53 -36 9 -67 18 -70 21 -3 4 -12 7 -20 8 -31 4 -74 14 -129 32 -77 25
-173 54 -188 57 -16 3 -154 44 -173 51 -19 8 -18 7 -60 17 -19 5 -41 13 -47
18 -7 6 -13 8 -13 5 0 -3 -16 1 -35 9 -19 8 -37 14 -40 14 -3 0 -10 2 -17 5
-32 10 -154 49 -158 50 -9 1 -145 46 -165 55 -11 4 -56 19 -100 33 -44 15
-145 49 -225 77 -80 28 -165 58 -190 66 -25 8 -54 19 -65 24 -11 5 -48 18 -82
29 -56 19 -81 28 -138 52 -11 4 -83 31 -160 59 -77 28 -149 55 -160 60 -40 18
-261 102 -282 107 -13 3 -23 8 -23 12 0 4 -8 7 -19 8 -10 1 -40 11 -67 23 -27
12 -59 26 -71 31 -13 5 -33 13 -45 18 -13 5 -66 26 -118 46 -106 41 -156 62
-184 77 -10 5 -26 11 -35 13 -9 2 -38 14 -66 26 -27 13 -53 24 -57 25 -5 1
-11 3 -15 4 -5 1 -11 2 -15 1 -5 0 -8 3 -8 9 0 5 -9 10 -19 10 -11 0 -22 3
-24 8 -3 4 -37 18 -76 32 -39 13 -71 28 -71 32 0 4 -6 8 -14 8 -7 0 -40 12
-72 26 -67 29 -93 41 -184 79 -36 15 -89 38 -118 51 -29 13 -55 24 -57 24 -2
0 -32 13 -67 29 -123 57 -248 111 -258 111 -6 0 -10 4 -10 8 0 5 -6 9 -12 9
-7 0 -42 14 -78 31 -36 16 -87 40 -115 52 -27 12 -75 34 -105 48 -30 14 -57
27 -60 27 -6 2 -97 44 -185 85 -33 15 -70 31 -82 35 -13 3 -23 11 -23 16 0 5
-6 9 -13 9 -8 0 -27 6 -43 14 -16 8 -87 42 -159 76 -134 64 -239 114 -505 243
-85 41 -177 85 -205 97 -27 12 -82 37 -122 56 -40 19 -77 34 -83 34 -5 0 -10
4 -10 8 0 5 -6 9 -12 9 -7 0 -62 24 -123 53 -203 96 -296 140 -300 140 -2 0
-47 21 -102 46 -96 45 -148 69 -268 124 -33 15 -104 49 -158 74 -54 25 -100
46 -102 46 -2 0 -56 25 -120 55 -65 30 -119 55 -120 55 -2 0 -41 17 -87 39
-184 86 -240 111 -244 111 -2 0 -27 11 -56 24 -29 13 -75 34 -103 46 -27 12
-74 33 -103 46 -29 13 -56 24 -60 24 -4 0 -17 8 -30 18 l-23 18 101 47 c55 26
105 47 110 47 6 0 10 5 10 10 0 6 4 10 9 10 8 0 88 37 340 156 62 30 115 54
117 54 2 0 60 27 130 60 69 33 128 60 130 60 1 0 42 18 91 41 114 53 182 85
323 149 63 29 148 68 188 86 41 19 78 34 83 34 5 0 9 5 9 12 0 6 3 8 6 5 4 -4
19 0 33 8 47 26 283 135 292 135 5 0 9 5 9 10 0 6 3 9 8 8 4 -1 39 13 77 32
82 39 74 36 102 45 13 4 23 11 23 16 0 5 5 9 11 9 6 0 41 14 77 32 37 17 70
31 75 30 4 -1 7 2 7 8 0 5 5 10 11 10 5 0 66 27 135 60 68 33 129 60 134 60 6
0 10 5 10 10 0 6 6 10 13 10 6 0 59 23 115 50 57 28 108 50 113 50 5 0 9 4 9
9 0 5 10 11 23 15 13 3 70 28 128 54 108 51 162 76 289 133 41 18 78 37 81 42
3 5 8 7 11 5 3 -1 38 12 79 31 161 73 289 130 294 130 3 0 18 7 34 15 16 9 31
12 35 9 3 -4 6 -1 6 5 0 7 5 12 11 12 5 0 34 11 62 24 29 13 102 45 162 70 61
26 124 54 140 61 17 7 46 20 65 28 19 8 133 56 253 106 243 102 270 114 277
116 3 1 16 6 30 12 99 42 280 113 287 113 5 0 14 5 21 12 6 6 19 13 28 14 9 2
38 12 65 23 72 32 103 44 115 46 6 2 44 17 84 35 40 18 78 33 84 35 14 3 45
14 71 26 56 24 231 89 242 89 7 0 13 4 13 8 0 4 17 13 38 19 20 6 102 36 182
68 80 31 150 58 155 59 6 2 17 6 25 9 33 13 346 128 360 132 8 2 57 20 108 40
51 19 96 35 101 35 6 0 22 5 38 12 15 6 30 12 33 13 3 1 12 4 20 8 23 9 193
65 210 69 8 2 17 5 20 8 6 6 237 83 245 81 3 -1 19 6 35 14 16 8 31 15 32 14
2 -1 23 5 48 12 25 7 47 13 50 13 3 1 10 5 17 9 6 4 23 8 37 9 14 1 26 6 26
10 0 4 11 8 25 8 14 0 25 4 25 8 0 5 6 9 13 9 6 0 45 10 85 22 40 13 78 24 85
25 7 1 44 12 82 23 61 18 119 34 135 37 3 1 10 4 15 7 6 4 28 10 50 14 22 4
44 10 50 13 5 4 15 7 20 8 6 1 48 12 95 24 47 12 92 23 100 25 8 2 56 13 105
25 50 12 101 24 115 26 14 3 32 7 40 9 8 3 33 7 55 10 22 4 56 10 75 15 19 5
51 12 70 15 19 3 60 10 90 17 30 6 71 12 90 14 19 1 46 5 60 8 14 2 59 10 100
16 73 10 104 14 200 25 25 2 68 7 96 10 126 14 197 20 394 30 74 4 162 9 195
11 33 2 211 6 395 9 184 3 336 8 339 11 3 3 7 1 9 -5 2 -6 12 -7 27 -1z"/>
<path d="M6217 13335 c-1 -2 -31 -5 -67 -9 -66 -6 -105 -11 -173 -20 -50 -8
-218 -64 -237 -80 -8 -7 -24 -16 -34 -20 -37 -13 -132 -90 -176 -143 -92 -110
-144 -253 -143 -393 1 -81 3 -98 28 -178 19 -62 46 -111 92 -170 40 -49 104
-112 116 -112 4 0 16 -8 27 -18 10 -9 45 -30 77 -46 32 -16 61 -34 64 -39 3
-5 8 -8 10 -7 2 1 18 -4 34 -10 80 -31 118 -44 210 -72 55 -16 107 -31 115
-32 37 -6 96 -19 105 -25 6 -3 17 -6 25 -8 25 -3 104 -24 125 -33 11 -4 41
-15 67 -25 65 -23 124 -64 153 -108 14 -20 25 -38 25 -39 -1 -2 2 -11 6 -21
13 -35 -2 -116 -30 -157 -31 -46 -101 -95 -161 -111 -68 -19 -203 -13 -267 11
-128 48 -210 154 -234 305 -8 52 -11 54 -51 51 -39 -4 -205 -15 -328 -22 -38
-2 -108 -6 -155 -10 -47 -3 -96 -7 -110 -8 -27 -1 -29 -12 -16 -86 5 -25 9
-49 10 -55 4 -28 40 -133 64 -183 55 -118 176 -265 250 -303 15 -8 29 -16 32
-20 8 -8 118 -58 145 -65 6 -1 37 -9 70 -18 33 -9 76 -19 95 -22 19 -3 46 -7
60 -10 139 -23 420 -23 580 1 150 22 308 81 412 154 48 33 158 134 158 145 0
4 8 16 18 26 15 16 94 161 98 180 0 3 4 12 8 21 4 9 6 20 5 25 -2 5 3 29 10
54 18 61 19 254 2 285 -3 6 -6 15 -6 20 -5 89 -108 252 -205 326 -25 19 -47
37 -50 40 -21 28 -310 151 -389 166 -14 2 -29 6 -33 9 -5 3 -24 8 -41 11 -18
3 -34 8 -37 11 -3 4 -12 8 -20 9 -8 1 -26 4 -40 8 -14 3 -38 9 -55 11 -90 16
-302 76 -338 96 -53 30 -88 81 -85 125 1 19 6 37 10 39 5 3 6 9 3 14 -3 4 12
25 33 47 58 59 155 80 280 61 132 -21 223 -110 248 -244 l7 -36 99 5 c54 2
101 7 104 9 3 3 21 2 40 -2 18 -4 34 -5 34 -1 0 4 17 7 38 8 43 1 276 14 309
17 13 1 25 5 28 8 6 5 -1 51 -19 134 -6 31 -57 157 -69 172 -5 7 -17 25 -26
42 -23 42 -100 122 -155 159 -90 63 -260 125 -370 137 -22 3 -57 7 -76 10 -36
4 -328 12 -333 9z"/>
<path d="M17777 13334 c-1 -2 -32 -4 -67 -6 -36 -2 -71 -7 -78 -12 -6 -4 -12
-5 -12 -3 0 8 -93 -12 -182 -40 -49 -14 -88 -30 -88 -34 0 -5 -7 -6 -15 -3 -8
4 -15 1 -15 -5 0 -6 -7 -11 -14 -11 -18 0 -125 -62 -186 -108 -106 -80 -214
-211 -278 -337 -30 -61 -80 -199 -88 -245 -3 -14 -7 -32 -9 -40 -5 -19 -11
-58 -21 -135 -8 -69 -9 -358 -1 -395 3 -14 8 -43 11 -66 7 -59 37 -177 47
-188 5 -6 9 -17 9 -26 0 -28 75 -170 128 -245 74 -104 173 -200 267 -260 63
-40 199 -100 255 -111 14 -3 43 -10 65 -16 22 -7 47 -13 55 -14 8 -1 35 -4 60
-8 107 -16 142 -18 275 -19 126 0 223 6 280 19 11 2 31 6 45 8 32 5 110 25
130 33 8 4 17 7 20 8 75 20 238 108 262 140 4 6 8 7 8 3 0 -5 8 0 18 10 10 9
38 35 63 57 47 43 129 138 129 150 0 4 6 13 14 19 13 10 97 168 96 181 0 3 9
29 20 57 49 134 64 253 63 493 0 233 -8 294 -55 445 -23 75 -76 192 -92 202
-6 4 -7 8 -3 8 14 0 -85 132 -143 190 -53 53 -179 150 -195 150 -5 0 -16 6
-24 13 -16 14 -121 58 -196 82 -76 24 -168 43 -255 50 -19 2 -35 4 -35 5 0 3
-265 6 -268 4z m177 -531 c5 -3 23 -7 41 -8 72 -4 191 -80 255 -161 41 -51 83
-178 96 -284 6 -49 6 -309 0 -345 -2 -16 -7 -50 -11 -75 -7 -48 -34 -136 -56
-185 -45 -97 -173 -192 -287 -210 -232 -38 -418 45 -507 226 -29 59 -46 112
-51 159 -1 8 -3 17 -4 20 -12 29 -16 272 -7 382 7 81 34 195 53 226 8 12 12
22 9 22 -3 0 9 21 26 48 62 89 139 147 238 175 46 13 188 20 205 10z"/>
<path d="M7470 13293 c0 -5 344 -518 351 -523 3 -3 8 -10 10 -15 4 -9 278
-421 450 -675 l64 -94 0 -467 c0 -257 3 -471 7 -474 12 -12 679 -9 687 3 3 5
6 219 5 473 l-1 464 56 83 c31 47 63 95 71 107 44 69 253 380 261 389 5 6 87
128 181 271 95 143 175 262 178 265 4 4 45 65 113 171 l17 25 -384 0 -384 0
-68 -115 c-38 -63 -75 -128 -83 -143 -7 -15 -17 -28 -22 -28 -5 0 -9 -4 -9 -9
0 -12 -71 -134 -83 -142 -5 -3 -8 -10 -8 -15 1 -5 -5 -16 -12 -24 -7 -9 -16
-22 -20 -30 -3 -8 -20 -37 -36 -65 -17 -27 -40 -66 -51 -85 -47 -81 -56 -93
-64 -92 -5 0 -21 20 -35 45 -100 174 -136 232 -143 235 -4 2 -8 8 -8 12 0 8
-122 217 -171 295 -11 17 -37 59 -58 95 l-39 65 -386 0 c-212 0 -386 -1 -386
-2z"/>
<path d="M10145 13290 c-4 -6 -8 -91 -5 -105 1 -5 1 -14 0 -20 -2 -13 -2 -237
0 -250 1 -5 1 -14 0 -20 -2 -11 -1 -187 1 -195 1 -3 0 -9 -1 -15 -2 -13 -2
-237 0 -250 1 -5 1 -14 0 -20 -2 -11 -1 -187 1 -195 1 -3 0 -9 -1 -15 -2 -13
-2 -237 0 -250 1 -5 1 -14 0 -20 -2 -11 -1 -187 1 -195 1 -3 0 -9 -1 -15 -2
-13 -2 -237 0 -250 1 -5 1 -14 0 -20 -2 -11 -1 -187 1 -195 1 -3 0 -9 -1 -15
-4 -19 -1 -198 4 -202 3 -4 499 -7 554 -4 9 1 12 177 12 848 0 465 3 844 6
841 5 -5 34 -116 49 -182 2 -12 13 -55 25 -96 11 -41 22 -88 25 -104 3 -16 8
-33 11 -38 3 -5 8 -21 10 -36 3 -15 16 -68 29 -118 14 -50 27 -101 29 -115 3
-13 5 -24 6 -24 1 0 3 -7 5 -15 15 -59 20 -79 39 -148 8 -29 15 -55 15 -57 1
-3 1 -6 2 -7 0 -2 3 -14 6 -28 6 -31 8 -41 16 -60 7 -19 49 -198 48 -205 0 -2
6 -23 14 -46 8 -22 14 -43 13 -47 -1 -4 1 -14 4 -22 13 -35 29 -97 32 -120 2
-14 6 -32 8 -40 9 -28 26 -85 38 -132 12 -44 15 -48 44 -49 151 -3 479 0 484
5 3 4 6 14 7 24 2 18 43 176 53 202 3 8 6 22 6 30 1 8 5 21 9 28 5 6 6 12 3
12 -3 0 1 18 9 40 8 22 12 40 10 40 -3 0 0 11 5 25 10 25 20 65 24 95 1 9 5
20 8 25 3 6 9 26 14 45 4 19 9 40 10 45 2 6 5 20 8 33 3 12 9 32 12 45 4 12 7
32 8 45 0 12 4 22 7 22 4 0 9 12 12 28 8 44 17 80 33 140 21 79 88 337 135
522 22 85 42 164 45 175 3 11 6 25 8 32 13 66 16 -90 16 -815 0 -795 1 -842
18 -843 9 0 136 -1 282 -1 l265 -1 3 189 c3 216 3 198 1 329 0 55 0 105 1 110
1 6 1 15 0 20 -2 8 -1 87 0 145 1 8 0 44 -1 80 0 36 0 70 1 75 1 6 1 15 0 20
-2 8 -1 87 0 145 1 8 0 44 -1 80 0 36 0 70 1 75 1 6 1 15 0 20 -2 8 -1 87 0
145 1 8 0 44 -1 80 0 36 0 70 1 75 1 6 1 15 0 20 -2 8 -1 87 0 145 1 8 0 44
-1 80 0 36 0 70 1 75 1 6 1 15 0 20 -2 8 -1 76 0 145 1 8 0 45 -1 81 -2 36 0
70 4 76 4 6 1 15 -6 20 -7 6 -189 10 -461 9 l-449 -1 -8 -22 c-5 -13 -10 -33
-12 -45 -2 -13 -7 -30 -10 -38 -4 -8 -9 -26 -11 -40 -3 -14 -19 -79 -36 -145
-18 -66 -34 -130 -36 -142 -2 -12 -9 -34 -14 -49 -6 -15 -8 -29 -5 -32 2 -3 1
-10 -4 -16 -5 -6 -14 -36 -21 -66 -7 -30 -27 -111 -46 -181 -18 -69 -36 -136
-38 -150 -2 -13 -5 -24 -6 -24 -1 0 -3 -7 -5 -15 -1 -8 -8 -35 -15 -60 -7 -25
-14 -53 -16 -62 -2 -10 -7 -28 -10 -40 -3 -13 -7 -30 -9 -38 -2 -8 -4 -15 -5
-15 -2 0 -6 -18 -14 -61 -3 -17 -12 -49 -20 -71 -8 -23 -13 -44 -10 -47 2 -3
1 -4 -3 -1 -4 3 -9 13 -11 23 -2 9 -5 26 -7 37 -3 11 -23 90 -46 175 -23 85
-42 161 -42 168 0 6 -4 12 -9 12 -5 0 -7 3 -4 8 3 5 -49 227 -54 227 -1 0 -3
9 -5 21 -3 11 -12 47 -20 80 -9 32 -18 67 -20 77 -2 10 -7 28 -11 40 -4 12 -8
29 -9 37 -2 8 -12 50 -24 92 -12 43 -24 86 -26 98 -3 11 -7 28 -9 38 -2 10
-11 42 -20 70 -8 29 -13 52 -10 52 3 0 0 8 -5 18 -6 11 -12 31 -15 47 -3 15
-8 30 -11 34 -8 7 -905 9 -910 1z"/>
<path d="M13124 13288 c-3 -4 -2 -8 3 -8 4 0 1 -5 -7 -10 -8 -5 -10 -10 -5
-10 12 0 14 -169 2 -187 -4 -6 -4 -14 0 -16 10 -7 10 -408 0 -424 -4 -6 -4
-14 1 -17 10 -6 9 -167 -1 -183 -4 -6 -4 -14 0 -16 10 -7 10 -408 0 -424 -4
-6 -4 -14 1 -17 10 -6 9 -167 -1 -183 -4 -6 -4 -14 0 -16 10 -7 10 -438 0
-454 -4 -6 -4 -14 0 -16 5 -3 8 -64 8 -136 l-1 -131 31 -1 c16 0 287 0 600 0
530 0 645 2 750 15 22 3 63 8 90 11 47 5 73 9 135 20 179 31 318 134 412 305
14 25 29 59 33 75 5 17 9 33 10 38 2 4 3 8 5 10 13 16 18 253 6 307 -4 19 -9
40 -10 45 -1 6 -10 27 -19 49 -9 21 -17 40 -17 42 0 2 -15 25 -32 51 -35 51
-84 98 -140 137 -35 23 -192 89 -215 89 -7 0 -13 3 -13 6 0 7 50 31 65 31 6 0
17 6 24 13 6 6 15 12 19 12 22 0 129 95 156 138 34 55 66 121 72 146 23 113
24 187 1 311 -8 45 -78 160 -131 216 -33 35 -64 64 -68 64 -4 0 -16 7 -26 16
-16 14 -86 47 -147 70 -24 9 -22 8 -65 17 -19 4 -46 10 -60 13 -37 10 -1461
11 -1466 2z m990 -453 c72 -2 146 -8 164 -13 91 -29 142 -97 142 -188 0 -104
-32 -158 -115 -196 -46 -20 -67 -22 -262 -25 -167 -3 -213 -1 -214 9 -1 16 -1
376 0 400 1 14 11 17 62 15 33 -1 63 1 66 6 2 4 9 4 15 1 5 -4 69 -8 142 -9z
m-74 -855 c3 -1 10 -1 15 0 27 7 115 5 115 -2 0 -4 11 -3 24 2 13 5 26 7 27 5
2 -1 27 -6 54 -9 149 -20 225 -88 231 -207 6 -126 -67 -206 -216 -236 -50 -10
-460 -9 -461 2 -1 5 -2 106 -3 223 -1 157 2 215 11 220 10 6 190 8 203 2z"/>
<path d="M15604 12174 c1 -617 4 -1126 8 -1129 8 -8 676 -10 683 -3 3 2 4 85
5 184 0 212 0 192 0 324 0 58 -1 112 -1 120 0 8 0 134 0 280 0 146 0 272 0
280 2 44 3 216 1 225 -1 6 -2 15 -1 20 2 8 2 262 0 310 0 6 0 57 0 115 1 58 1
114 1 125 0 11 0 66 1 123 1 57 -1 106 -5 109 -3 3 -1 12 5 20 6 7 10 14 8 14
-2 1 -162 2 -355 3 l-351 2 1 -1122z"/>
</g>
</svg>
