<svg xmlns="http://www.w3.org/2000/svg" viewBox="0 0 304 112" version="1.1" width="304px" height="112px">
<g transform="matrix(0.03040304034948349, 0, 0, 0.030403314158320427, -15.02403259277344, -14.293267250061035)"><g>
  <path style="fill:black;fill-rule:nonzero" d="M2673 2466l273 -17c6,44 18,78 36,101 29,38 72,56 127,56 41,0 72,-10 95,-29 22,-19 33,-41 33,-67 0,-24 -10,-46 -32,-65 -21,-19 -70,-37 -147,-54 -126,-28 -215,-66 -269,-113 -54,-47 -81,-106 -81,-179 0,-48 14,-93 41,-135 28,-42 69,-76 125,-100 56,-24 132,-36 228,-36 119,0 209,22 271,66 62,44 99,114 111,210l-270 16c-7,-42 -22,-72 -45,-91 -23,-19 -55,-28 -95,-28 -33,0 -59,7 -75,21 -17,14 -25,31 -25,52 0,15 7,28 21,40 14,12 46,24 96,34 125,27 215,54 269,82 54,28 94,62 118,103 25,41 37,87 37,137 0,59 -17,114 -49,164 -33,50 -79,88 -138,114 -59,26 -133,39 -223,39 -158,0 -267,-30 -328,-91 -61,-61 -95,-138 -103,-232zm892 -621l318 0 187 313 187 -313 316 0 -361 539 0 389 -287 0 0 -389 -361 -539zm1098 0l377 0 146 564 145 -564 376 0 0 928 -234 0 0 -707 -182 707 -212 0 -181 -707 0 707 -235 0 0 -928zm1227 0l537 0c89,0 158,22 206,67 48,44 72,99 72,164 0,55 -17,102 -51,141 -23,26 -56,47 -100,62 67,16 116,44 147,83 31,39 47,88 47,147 0,48 -11,91 -33,130 -22,38 -53,69 -92,91 -24,14 -60,24 -109,30 -65,8 -107,13 -129,13l-495 0 0 -928zm289 364l125 0c45,0 76,-8 94,-23 18,-16 26,-38 26,-67 0,-27 -9,-48 -26,-63 -18,-15 -48,-23 -92,-23l-127 0 0 176zm0 364l146 0c49,0 84,-9 104,-26 20,-17 30,-41 30,-71 0,-27 -10,-49 -30,-66 -20,-17 -55,-25 -105,-25l-146 0 0 188zm730 -728l287 0 0 928 -287 0 0 -928zm457 464c0,-151 42,-269 127,-354 84,-84 202,-127 352,-127 154,0 273,41 357,124 83,83 125,199 125,348 0,108 -18,197 -55,267 -37,69 -89,123 -158,162 -69,39 -155,58 -258,58 -105,0 -191,-17 -260,-50 -68,-33 -124,-86 -167,-158 -43,-72 -64,-162 -64,-271zm287 1c0,94 17,161 52,202 35,41 82,61 142,61 62,0 109,-20 143,-60 34,-40 51,-112 51,-216 0,-87 -18,-151 -53,-192 -35,-40 -83,-60 -143,-60 -58,0 -104,20 -139,61 -35,41 -52,109 -52,203z"/>
  <path style="fill:black" d="M1661 2853c938,463 2789,1266 3839,1266 1115,0 1929,-323 2801,-745 372,-174 740,-349 1109,-530l1091 -548c-107,-50 -1398,-685 -1623,-796 -826,-405 -2111,-1001 -3063,-1001 -713,0 -1061,59 -1711,273 -710,234 -1773,676 -2433,1002 -382,189 -783,358 -1169,547 202,85 910,415 1161,530zm3839 984c-887,0 -2449,-678 -3241,-1069 -212,-97 -809,-376 -980,-448 326,-160 665,-303 987,-462 557,-276 1455,-649 2054,-846 549,-181 843,-230 1445,-230 803,0 1888,503 2586,845 190,93 1280,630 1370,672l-921 462c-311,153 -621,301 -936,447 -736,356 -1423,629 -2365,629z"/>
 </g></g>
</svg>